<?xml version="1.0" encoding="UTF-8" standalone="no"?>
<!-- Created with Inkscape (http://www.inkscape.org/) -->

<svg
   width="170"
   height="34"
   viewBox="0 0 44.979168 8.9958333"
   version="1.1"
   id="svg5"
   inkscape:version="1.1.1 (3bf5ae0d25, 2021-09-20)"
   sodipodi:docname="logo.svg"
   xmlns:inkscape="http://www.inkscape.org/namespaces/inkscape"
   xmlns:sodipodi="http://sodipodi.sourceforge.net/DTD/sodipodi-0.dtd"
   xmlns="http://www.w3.org/2000/svg"
   xmlns:svg="http://www.w3.org/2000/svg">
  <sodipodi:namedview
     id="namedview7"
     pagecolor="#505050"
     bordercolor="#eeeeee"
     borderopacity="1"
     inkscape:pageshadow="0"
     inkscape:pageopacity="0"
     inkscape:pagecheckerboard="0"
     inkscape:document-units="px"
     showgrid="true"
     height="34mm"
     inkscape:zoom="4.1928018"
     inkscape:cx="97.428884"
     inkscape:cy="42.572964"
     inkscape:window-width="1920"
     inkscape:window-height="1017"
     inkscape:window-x="1912"
     inkscape:window-y="-8"
     inkscape:window-maximized="1"
     inkscape:current-layer="layer1"
     units="px"
     fit-margin-top="0"
     fit-margin-left="0"
     fit-margin-right="0"
     fit-margin-bottom="0"
     width="170px" />
  <defs
     id="defs2" />
  <g
     inkscape:label="Capa 1"
     inkscape:groupmode="layer"
     id="layer1"
     transform="translate(-0.37357154,-0.00293336)">
    <g
       aria-label="Organizing youR Trip"
       transform="matrix(0.09036418,0,0,0.09036418,-2.7639323,5.0422666)"
       id="flowRoot874"
       style="font-size:40px;line-height:1.25;font-family:lolitta;-inkscape-font-specification:lolitta;text-align:justify;letter-spacing:0px;word-spacing:0px;fill:#98e3e7;stroke:#98e3e7;stroke-width:1.00027">
      <path
         d="m 136.25715,4.2562454 q 0,2.8124983 -0.39063,5.4947884 -0.36458,2.6562482 -1.06771,5.0520802 -0.67708,2.395832 -1.6927,4.401039 -1.01563,2.005207 -2.29167,3.46354 -1.25,1.432291 -2.78645,2.239582 -1.51042,0.833333 -3.22917,0.833333 -1.74479,0 -3.20312,-0.807292 -1.43229,-0.807291 -2.60417,-2.265623 -1.14583,-1.458333 -2.03125,-3.46354 -0.85937,-2.005207 -1.45833,-4.401039 -0.57291,-2.395832 -0.88541,-5.0520802 -0.28646,-2.6822901 -0.28646,-5.4947884 0,-4.16666419 0.65104,-7.6302038 0.65104,-3.4895812 2.00521,-5.9895798 1.35416,-2.4999988 3.41145,-3.8802058 2.08333,-1.380208 4.92187,-1.380208 2.99479,0 5.07813,1.380208 2.08333,1.380207 3.38541,3.8802058 1.30208,2.4999986 1.875,5.9895798 0.59896,3.46353961 0.59896,7.6302038 z m -4.84375,0.2083332 q 0,-3.4635396 -0.33854,-6.3541629 -0.3125,-2.8906233 -1.04167,-4.9479137 -0.72916,-2.0833321 -1.90104,-3.229165 -1.14583,-1.145832 -2.8125,-1.145832 -1.5625,0 -2.73437,1.145832 -1.14583,1.1458329 -1.90104,3.229165 -0.75521,2.0572904 -1.11979,4.9479137 -0.36458,2.8906233 -0.36458,6.3541629 0,3.5156229 0.36458,6.7447874 0.36458,3.229165 1.09375,5.729164 0.72916,2.473956 1.82291,3.95833 1.09375,1.484375 2.52604,1.484375 1.43229,0 2.60417,-1.484375 1.19792,-1.484374 2.03125,-3.95833 0.85937,-2.499999 1.30208,-5.729164 0.46875,-3.2291645 0.46875,-6.7447874 z"
         style="font-size:53.3333px;line-height:0;font-family:Englebert;-inkscape-font-specification:'Englebert, Normal';text-align:start"
         id="path24" />
      <path
         d="m 153.91339,-3.8427081 q 1.51041,0 2.52604,0.6249996 1.04166,0.6249996 1.66666,1.6666657 0.65104,1.04166603 0.91146,2.42187354 0.28646,1.35416586 0.28646,2.81249836 0,1.4322908 -0.15625,3.4635396 -0.15625,2.0052071 -0.67709,4.0885393 l -3.20312,-0.46875 q 0.3125,-1.8489571 0.41667,-3.3854145 0.10416,-1.562499 0.10416,-2.7083317 0,-2.7864567 -0.59895,-3.90624766 -0.57292,-1.14583265 -1.79688,-1.14583265 -1.0677,0 -2.3177,0.98958274 -1.25,0.98958277 -2.44792,2.99478987 -1.19792,2.0052072 -2.1875,5.0520803 -0.98958,3.0468736 -1.53646,7.1614546 v 9.192702 l -3.93228,-0.208333 q -0.026,-7.57812 -0.15625,-12.9427 -0.10417,-5.3906223 -0.20834,-8.8020786 -0.15625,-4.01041424 -0.33854,-6.5885377 l 4.63541,-0.3124998 v 8.5156199 q 0.52084,-1.4062492 1.32813,-2.8906233 0.83333,-1.51041573 1.95312,-2.76041499 1.14584,-1.24999921 2.55208,-2.05729041 1.4323,-0.8072912 3.17709,-0.8072912 z"
         style="font-size:53.3333px;line-height:0;font-family:Englebert;-inkscape-font-specification:'Englebert, Normal';text-align:start"
         id="path26" />
      <path
         d="m 180.42379,-2.2020841 q 1.14583,1.1718743 1.875,2.63020677 0.72916,1.43229083 1.14583,2.96874823 0.41667,1.5364574 0.57292,3.0729148 0.15625,1.5364575 0.15625,2.8645817 -0.026,2.7864566 -0.54688,5.0260386 -0.49479,2.21354 -1.32812,3.958331 -0.83334,1.718749 -1.92709,2.968748 -1.09374,1.249999 -2.3177,2.057291 -1.19792,0.807291 -2.47396,1.171874 -1.25,0.390625 -2.39583,0.390625 -0.96354,0 -1.84896,-0.15625 -0.85937,-0.15625 -1.61458,-0.390625 -0.67708,0.494791 -1.22396,1.067708 -0.52083,0.572916 -0.91146,1.145832 -0.39062,0.598958 -0.59895,1.171875 -0.20834,0.572916 -0.20834,1.093749 0,0.885416 0.49479,1.354166 0.52084,0.46875 0.98959,0.46875 0.67708,0 1.3802,-0.390625 0.70313,-0.364583 1.45834,-0.9375 0.78125,-0.572916 1.61458,-1.249999 0.85937,-0.651041 1.77083,-1.223957 0.9375,-0.572917 1.97917,-0.963542 1.04166,-0.364583 2.21354,-0.364583 1.04166,0 2.0052,0.286459 0.96355,0.286458 1.77084,0.833332 0.83333,0.572917 1.43229,1.40625 0.59896,0.833332 0.91146,1.953123 0.1302,0.442708 0.15625,0.859375 0.0521,0.416666 0.0521,0.859374 0,2.187499 -1.01563,3.880206 -0.98958,1.692708 -2.68229,2.83854 -1.6927,1.171875 -3.95833,1.744791 -2.23958,0.598958 -4.76562,0.598958 -0.96354,0 -1.95312,-0.130208 -0.96354,-0.104167 -1.92708,-0.364583 l 0.46874,-2.343749 q 0.52084,0.130208 1.01563,0.182292 0.52083,0.05208 1.01562,0.05208 1.25,0 2.31771,-0.234375 1.06771,-0.208333 1.84896,-0.494791 0.91146,-0.3125 1.69271,-0.729167 2.10937,-1.171874 2.99478,-2.265623 0.91146,-1.09375 0.91146,-2.161457 0,-0.546875 -0.20833,-1.041666 -0.18229,-0.46875 -0.52083,-0.859375 -0.33854,-0.364583 -0.80729,-0.598958 -0.46875,-0.208333 -1.04167,-0.208333 -0.91146,0 -2.10937,0.572916 -1.19792,0.598958 -2.68229,1.927082 -1.25,1.09375 -2.60417,1.614583 -1.35417,0.520833 -2.73437,0.520833 -0.91146,0 -1.84896,-0.286458 -0.91146,-0.260417 -1.66667,-0.78125 -0.72916,-0.520833 -1.22395,-1.328124 -0.46875,-0.78125 -0.46875,-1.822916 0,-0.807291 0.26041,-1.718749 0.26042,-0.885416 0.78125,-1.796874 0.52084,-0.885416 1.27604,-1.74479 0.78125,-0.859375 1.77084,-1.614583 -1.5625,-1.119791 -2.60417,-2.734373 -1.04167,-1.640624 -1.69271,-3.515623 -0.65104,-1.874999 -0.9375,-3.854164 -0.26041,-2.005207 -0.26041,-3.8802062 0,-3.6979145 0.83333,-6.3802045 0.85937,-2.68229009 2.31771,-4.4270807 1.48437,-1.7447906 3.46354,-2.5781235 2.0052,-0.8333328 4.32291,-0.8333328 1.40625,0 2.60417,0.2343748 1.19791,0.2083333 2.21354,0.598958 l 2.55208,-6.4843711 3.77604,2.6562484 z m 0,11.4843682 q 0,-0.8072912 -0.0781,-1.8229156 -0.0521,-1.0156244 -0.28646,-2.0833321 -0.20833,-1.0677077 -0.62499,-2.1093738 -0.39063,-1.0677076 -1.04167,-1.9531238 l -2.34375,4.1666642 -2.03125,-1.119791 1.97917,-5.05208032 q -0.67709,-0.28645817 -1.48438,-0.46874968 -0.80729,-0.1822916 -1.77083,-0.1822916 -3.80208,0.1562499 -5.57291,2.83854 -1.77083,2.68229 -1.77083,7.6041621 0,3.3854145 0.62499,5.7031215 0.65105,2.317707 1.66667,3.749998 1.01563,1.406249 2.26562,2.031249 1.27605,0.624999 2.52604,0.624999 1.32813,0 2.70834,-0.651041 1.40625,-0.677083 2.55208,-2.109374 1.17187,-1.458332 1.90104,-3.697914 0.75521,-2.265624 0.78125,-5.4687469 z"
         style="font-size:53.3333px;line-height:0;font-family:Englebert;-inkscape-font-specification:'Englebert, Normal';text-align:start"
         id="path28" />
      <path
         d="m 208.70502,9.5947839 q -0.0521,2.6302071 -0.15625,5.2343721 -0.0521,1.119791 -0.10417,2.343748 -0.0521,1.223958 -0.13021,2.473957 -0.0521,1.223958 -0.15625,2.421874 -0.0781,1.197916 -0.15625,2.239582 l -3.5677,-0.104167 q 0.0521,-0.755208 0.0781,-1.484374 0.026,-0.729166 0.026,-1.458332 -1.17187,1.249999 -2.47395,1.953123 -1.30208,0.703125 -2.47396,1.067708 -1.35417,0.442708 -2.68229,0.572916 -0.28646,0.05208 -0.54687,0.05208 -0.23438,0 -0.52084,0 -1.82291,0 -3.48958,-0.520833 -1.66666,-0.494792 -2.96875,-1.536458 -1.27604,-1.041666 -2.05729,-2.604165 -0.7552,-1.588541 -0.7552,-3.723956 0,-1.874999 0.72916,-3.515623 0.75521,-1.666665 2.08333,-2.890623 1.35417,-1.2499994 3.25521,-1.9791656 1.90104,-0.7291662 4.21875,-0.7812495 0.0781,0 0.88541,0.052083 0.80729,0.052083 1.95313,0.3385414 1.17187,0.2604166 2.5,0.8593745 1.35416,0.5729164 2.49999,1.6145832 0,-1.1718751 -0.0521,-2.4739577 -0.0521,-1.3020825 -0.26042,-2.5520818 -0.18229,-1.2760409 -0.59895,-2.4218735 -0.41667,-1.1458327 -1.14584,-2.00520716 -0.70312,-0.88541614 -1.79687,-1.38020751 -1.09375,-0.52083303 -2.65625,-0.52083303 -1.22396,0 -2.23958,0.46874973 -1.01562,0.46874972 -1.79687,1.2760409 -0.78125,0.80729117 -1.30209,1.92708217 -0.52083,1.0937494 -0.78125,2.3697903 l -4.37499,-1.4062492 q 0.3125,-1.4843741 0.88541,-2.63020676 0.59896,-1.14583265 1.32813,-2.00520714 0.7552,-0.8593745 1.58854,-1.4583325 0.85937,-0.6249996 1.6927,-1.041666 1.95313,-0.9635411 4.21875,-1.1718743 3.125,0 5.28646,0.9374994 2.16145,0.9374995 3.48958,2.7604151 1.35416,1.82291554 1.92708,4.5052056 0.59896,2.6822901 0.59896,6.197913 z m -4.0625,7.2395791 q 0,-0.520833 0.026,-1.015624 0.026,-0.520834 0.026,-0.989583 -1.3802,-1.406249 -2.73437,-2.135416 -1.32812,-0.729166 -2.42187,-1.093749 -1.25,-0.416666 -2.42188,-0.46875 -1.61458,0 -2.78645,0.46875 -1.14584,0.442708 -1.90104,1.197916 -0.72917,0.755208 -1.09375,1.718749 -0.33854,0.963541 -0.33854,2.005207 0,1.067708 0.39062,1.927082 0.39063,0.859375 1.09375,1.458333 0.72917,0.598958 1.74479,0.937499 1.04167,0.3125 2.31771,0.3125 1.25,-0.104167 2.60416,-0.572916 1.17188,-0.416667 2.57813,-1.276041 1.43229,-0.885416 2.91666,-2.473957 z"
         style="font-size:53.3333px;line-height:0;font-family:Englebert;-inkscape-font-specification:'Englebert, Normal';text-align:start"
         id="path30" />
      <path
         d="m 229.87688,24.308317 q -0.20833,-3.958331 -0.41667,-7.109371 -0.18229,-3.177081 -0.33854,-5.416663 -0.18229,-2.6041655 -0.36458,-4.6354143 -0.20833,-3.1510398 -0.80729,-4.7395805 -0.57292,-1.61458241 -1.48438,-1.61458241 -0.91145,0 -1.84895,1.14583261 -0.9375,1.1458327 -1.84896,3.0468732 -0.91146,1.9010406 -1.74479,4.3489558 -0.80729,2.4218736 -1.51042,4.9999966 -0.67708,2.578124 -1.19791,5.104164 -0.49479,2.52604 -0.75521,4.557289 l -3.56771,0.104167 q 0.15625,-4.322915 0.15625,-8.203121 0,-4.062497 -0.1302,-7.4218701 -0.13021,-3.3854147 -0.28646,-5.8333299 -0.18229,-2.8645816 -0.39063,-5.1562469 l 5.02604,0.2083332 V 8.1624931 q 0.59896,-1.718749 1.06771,-2.8906233 0.46875,-1.1718743 0.78125,-1.9010405 0.36458,-0.8593745 0.59896,-1.3541659 0.67708,-1.27604091 1.48437,-2.26562366 0.80729,-1.01562434 1.66667,-1.69270734 0.88541,-0.7031246 1.77083,-1.0677077 0.91146,-0.3645831 1.74479,-0.3645831 0.83333,0 1.5625,0.3645831 0.72916,0.3645831 1.27604,1.1458327 0.57292,0.7812495 0.96354,2.00520711 0.41667,1.19791599 0.625,2.89062329 0.41667,2.8124983 0.72917,6.1458297 0.28645,2.8645815 0.52083,6.6927045 0.23437,3.828123 0.28646,8.229162 z"
         style="font-size:53.3333px;line-height:0;font-family:Englebert;-inkscape-font-specification:'Englebert, Normal';text-align:start"
         id="path32" />
      <path
         d="m 243.57479,-10.952079 q 0,0.651041 -0.26042,1.2239577 -0.23437,0.5468747 -0.65104,0.9635411 -0.41666,0.3906248 -0.98958,0.6249996 -0.54687,0.2343749 -1.17187,0.2343749 -0.625,0 -1.19792,-0.2343749 -0.54687,-0.2343748 -0.96354,-0.6249996 -0.39063,-0.4166664 -0.65104,-0.9635411 -0.23438,-0.5729167 -0.23438,-1.2239577 0,-0.625 0.23438,-1.171874 0.26041,-0.572917 0.65104,-0.963541 0.41667,-0.416667 0.96354,-0.651042 0.57292,-0.234374 1.19792,-0.234374 0.625,0 1.17187,0.234374 0.57292,0.234375 0.98958,0.651042 0.41667,0.390624 0.65104,0.963541 0.26042,0.546874 0.26042,1.171874 z m -0.98958,8.4895784 -0.44271,26.0156096 h -3.56771 l -0.36458,-26.3281094 z"
         style="font-size:53.3333px;line-height:0;font-family:Englebert;-inkscape-font-specification:'Englebert, Normal';text-align:start"
         id="path34" />
      <path
         d="M 265.5279,-2.7750004 V 0.58437258 L 251.38728,20.428111 h 13.90624 v 3.723956 H 247.11645 L 246.51749,20.89686 260.91852,0.84478909 H 247.76749 V -2.7750004 Z"
         style="font-size:53.3333px;line-height:0;font-family:Englebert;-inkscape-font-specification:'Englebert, Normal';text-align:start"
         id="path36" />
      <path
         d="m 274.85081,-10.952079 q 0,0.651041 -0.26041,1.2239577 -0.23438,0.5468747 -0.65104,0.9635411 -0.41667,0.3906248 -0.98959,0.6249996 -0.54687,0.2343749 -1.17187,0.2343749 -0.625,0 -1.19792,-0.2343749 -0.54687,-0.2343748 -0.96354,-0.6249996 -0.39062,-0.4166664 -0.65104,-0.9635411 -0.23437,-0.5729167 -0.23437,-1.2239577 0,-0.625 0.23437,-1.171874 0.26042,-0.572917 0.65104,-0.963541 0.41667,-0.416667 0.96354,-0.651042 0.57292,-0.234374 1.19792,-0.234374 0.625,0 1.17187,0.234374 0.57292,0.234375 0.98959,0.651042 0.41666,0.390624 0.65104,0.963541 0.26041,0.546874 0.26041,1.171874 z m -0.98958,8.4895784 -0.44271,26.0156096 h -3.5677 l -0.36459,-26.3281094 z"
         style="font-size:53.3333px;line-height:0;font-family:Englebert;-inkscape-font-specification:'Englebert, Normal';text-align:start"
         id="path38" />
      <path
         d="m 296.1008,24.308317 q -0.20833,-3.958331 -0.41666,-7.109371 -0.18229,-3.177081 -0.33854,-5.416663 -0.1823,-2.6041655 -0.36459,-4.6354143 -0.20833,-3.1510398 -0.80729,-4.7395805 -0.57291,-1.61458241 -1.48437,-1.61458241 -0.91146,0 -1.84896,1.14583261 -0.9375,1.1458327 -1.84896,3.0468732 -0.91145,1.9010406 -1.74479,4.3489558 -0.80729,2.4218736 -1.51041,4.9999966 -0.67709,2.578124 -1.19792,5.104164 -0.49479,2.52604 -0.75521,4.557289 l -3.5677,0.104167 q 0.15625,-4.322915 0.15625,-8.203121 0,-4.062497 -0.13021,-7.4218701 -0.13021,-3.3854147 -0.28646,-5.8333299 -0.18229,-2.8645816 -0.39062,-5.1562469 l 5.02603,0.2083332 V 8.1624931 q 0.59896,-1.718749 1.06771,-2.8906233 0.46875,-1.1718743 0.78125,-1.9010405 0.36458,-0.8593745 0.59896,-1.3541659 0.67708,-1.27604091 1.48437,-2.26562366 0.80729,-1.01562434 1.66667,-1.69270734 0.88541,-0.7031246 1.77083,-1.0677077 0.91146,-0.3645831 1.74479,-0.3645831 0.83333,0 1.5625,0.3645831 0.72917,0.3645831 1.27604,1.1458327 0.57292,0.7812495 0.96354,2.00520711 0.41667,1.19791599 0.625,2.89062329 0.41667,2.8124983 0.72917,6.1458297 0.28646,2.8645815 0.52083,6.6927045 0.23438,3.828123 0.28646,8.229162 z"
         style="font-size:53.3333px;line-height:0;font-family:Englebert;-inkscape-font-specification:'Englebert, Normal';text-align:start"
         id="path40" />
      <path
         d="m 321.80391,-2.2020841 q 1.14583,1.1718743 1.875,2.63020677 0.72916,1.43229083 1.14583,2.96874823 0.41667,1.5364574 0.57292,3.0729148 0.15625,1.5364575 0.15625,2.8645817 -0.026,2.7864566 -0.54688,5.0260386 -0.49479,2.21354 -1.32812,3.958331 -0.83334,1.718749 -1.92709,2.968748 -1.09375,1.249999 -2.3177,2.057291 -1.19792,0.807291 -2.47396,1.171874 -1.25,0.390625 -2.39583,0.390625 -0.96354,0 -1.84896,-0.15625 -0.85937,-0.15625 -1.61458,-0.390625 -0.67708,0.494791 -1.22396,1.067708 -0.52083,0.572916 -0.91146,1.145832 -0.39062,0.598958 -0.59895,1.171875 -0.20834,0.572916 -0.20834,1.093749 0,0.885416 0.49479,1.354166 0.52084,0.46875 0.98959,0.46875 0.67708,0 1.3802,-0.390625 0.70313,-0.364583 1.45834,-0.9375 0.78125,-0.572916 1.61458,-1.249999 0.85937,-0.651041 1.77083,-1.223957 0.9375,-0.572917 1.97917,-0.963542 1.04166,-0.364583 2.21354,-0.364583 1.04166,0 2.0052,0.286459 0.96355,0.286458 1.77084,0.833332 0.83333,0.572917 1.43229,1.40625 0.59895,0.833332 0.91145,1.953123 0.13021,0.442708 0.15625,0.859375 0.0521,0.416666 0.0521,0.859374 0,2.187499 -1.01563,3.880206 -0.98958,1.692708 -2.68229,2.83854 -1.6927,1.171875 -3.95833,1.744791 -2.23958,0.598958 -4.76562,0.598958 -0.96354,0 -1.95312,-0.130208 -0.96354,-0.104167 -1.92709,-0.364583 l 0.46875,-2.343749 q 0.52084,0.130208 1.01563,0.182292 0.52083,0.05208 1.01562,0.05208 1.25,0 2.31771,-0.234375 1.06771,-0.208333 1.84896,-0.494791 0.91145,-0.3125 1.6927,-0.729167 2.10938,-1.171874 2.99479,-2.265623 0.91146,-1.09375 0.91146,-2.161457 0,-0.546875 -0.20833,-1.041666 -0.18229,-0.46875 -0.52083,-0.859375 -0.33855,-0.364583 -0.8073,-0.598958 -0.46875,-0.208333 -1.04166,-0.208333 -0.91146,0 -2.10938,0.572916 -1.19791,0.598958 -2.68229,1.927082 -1.24999,1.09375 -2.60416,1.614583 -1.35417,0.520833 -2.73437,0.520833 -0.91146,0 -1.84896,-0.286458 -0.91146,-0.260417 -1.66667,-0.78125 -0.72916,-0.520833 -1.22395,-1.328124 -0.46875,-0.78125 -0.46875,-1.822916 0,-0.807291 0.26041,-1.718749 0.26042,-0.885416 0.78125,-1.796874 0.52084,-0.885416 1.27604,-1.74479 0.78125,-0.859375 1.77084,-1.614583 -1.5625,-1.119791 -2.60417,-2.734373 -1.04167,-1.640624 -1.69271,-3.515623 -0.65104,-1.874999 -0.9375,-3.854164 -0.26041,-2.005207 -0.26041,-3.8802062 0,-3.6979145 0.83333,-6.3802045 0.85937,-2.68229009 2.31771,-4.4270807 1.48437,-1.7447906 3.46354,-2.5781235 2.0052,-0.8333328 4.32291,-0.8333328 1.40625,0 2.60417,0.2343748 1.19791,0.2083333 2.21354,0.598958 l 2.55208,-6.4843711 3.77604,2.6562484 z m 0,11.4843682 q 0,-0.8072912 -0.0781,-1.8229156 -0.0521,-1.0156244 -0.28646,-2.0833321 -0.20833,-1.0677077 -0.625,-2.1093738 -0.39062,-1.0677076 -1.04166,-1.9531238 l -2.34375,4.1666642 -2.03125,-1.119791 1.97917,-5.05208032 q -0.67709,-0.28645817 -1.48438,-0.46874968 -0.80729,-0.1822916 -1.77083,-0.1822916 -3.80208,0.1562499 -5.57291,2.83854 -1.77084,2.68229 -1.77084,7.6041621 0,3.3854145 0.625,5.7031215 0.65105,2.317707 1.66667,3.749998 1.01562,1.406249 2.26562,2.031249 1.27604,0.624999 2.52604,0.624999 1.32813,0 2.70834,-0.651041 1.40624,-0.677083 2.55208,-2.109374 1.17187,-1.458332 1.90104,-3.697914 0.75521,-2.265624 0.78125,-5.4687469 z"
         style="font-size:53.3333px;line-height:0;font-family:Englebert;-inkscape-font-specification:'Englebert, Normal';text-align:start"
         id="path42" />
      <path
         d="m 361.96013,-3.1135419 q -0.15625,1.8229156 -0.3125,3.95833099 -0.15625,2.10937371 -0.28646,4.32291411 -0.10416,2.2135403 -0.20833,4.4531223 -0.10417,2.2395825 -0.18229,4.2968725 -0.20834,4.843747 -0.33854,9.765619 -0.13021,2.708332 -0.83334,4.999997 -0.67708,2.291665 -1.97916,3.958331 -1.27604,1.666666 -3.17708,2.604165 -1.90104,0.963541 -4.45313,0.963541 -1.64062,-0.05208 -3.20312,-0.416666 -0.67708,-0.15625 -1.38021,-0.416666 -0.70312,-0.234375 -1.40625,-0.598958 -0.67708,-0.338542 -1.32812,-0.833333 -0.625,-0.46875 -1.11979,-1.09375 l 2.03125,-2.942706 q 0.85937,0.989583 1.84896,1.536457 0.98958,0.546875 1.87499,0.807291 0.91146,0.260417 1.61459,0.3125 0.70312,0.07813 0.96354,0.07813 1.6927,0 2.89062,-0.677083 1.22396,-0.651041 2.03125,-1.822915 0.80729,-1.145833 1.27604,-2.760415 0.46875,-1.588541 0.70313,-3.437498 0.26041,-1.874999 0.31249,-3.93229 0.0781,-2.083332 0.0781,-4.192705 v -0.3125 q -0.78125,2.395832 -1.71875,4.062497 -0.91146,1.640624 -1.84896,2.734374 -0.9375,1.093749 -1.82291,1.718749 -0.88542,0.598958 -1.58854,0.885416 -0.70313,0.286458 -1.19792,0.338541 -0.46875,0.07813 -0.57291,0.07813 -1.95313,0 -3.28125,-1.093749 -1.32813,-1.067708 -2.13542,-3.098957 -0.80729,-2.031248 -1.17187,-4.947913 -0.33854,-2.916665 -0.33854,-6.5885381 0,-2.9427066 0.18229,-6.2760379 0.18229,-3.33333139 0.52083,-7.1093708 l 4.73958,0.3645831 q -0.67708,4.6093723 -0.98958,8.0729119 -0.28646,3.4374979 -0.28646,6.0156218 0,2.604165 0.20833,4.401039 0.23438,1.796874 0.57292,2.994789 0.33854,1.197916 0.72917,1.874999 0.41666,0.651042 0.78125,0.989583 0.36458,0.3125 0.65104,0.390625 0.28645,0.05208 0.36458,0.05208 0.98958,0 1.875,-0.911458 0.91146,-0.911457 1.69271,-2.421873 0.80729,-1.510416 1.48437,-3.46354 0.70312,-1.979165 1.27604,-4.114581 0.57292,-2.135415 1.01563,-4.2708304 0.46875,-2.1354154 0.78124,-3.9843726 0.3125,-1.84895728 0.4948,-3.2291648 0.18229,-1.4062492 0.23437,-2.0833321 z"
         style="font-size:53.3333px;line-height:0;font-family:Englebert;-inkscape-font-specification:'Englebert, Normal';text-align:start"
         id="path44" />
      <path
         d="m 387.66325,8.6833261 q 0,3.7499979 -0.88542,6.7187459 -0.85937,2.968748 -2.36979,5.05208 -1.48437,2.057291 -3.51562,3.177082 -2.03125,1.093749 -4.32291,1.093749 -2.31771,0 -4.34896,-1.145832 -2.03125,-1.145833 -3.54166,-3.255207 -1.51042,-2.109374 -2.39584,-5.05208 -0.85937,-2.968748 -0.85937,-6.5885379 0,-3.0989565 0.75521,-5.6510383 0.78125,-2.57812347 2.21354,-4.4270807 1.45833,-1.8489572 3.51562,-2.8645816 2.08333,-1.0416661 4.66146,-1.0416661 2.86458,0 4.94791,1.0416661 2.08333,1.0156244 3.4375,2.8645816 1.38021,1.84895723 2.03125,4.4270807 0.67708,2.5520818 0.67708,5.6510383 z m -4.03646,0.052083 q 0,-2.3437486 -0.41666,-4.2708308 -0.41667,-1.9270822 -1.30209,-3.3072897 -0.85937,-1.40624916 -2.18749,-2.161457 -1.32813,-0.7552079 -3.15104,-0.7552079 -1.64063,0 -2.96875,0.7552079 -1.30208,0.75520784 -2.21354,2.161457 -0.91146,1.3802075 -1.40625,3.3072897 -0.49479,1.9270822 -0.49479,4.2708308 0,2.7343739 0.54687,4.9479139 0.57292,2.21354 1.51042,3.802081 0.96354,1.588541 2.23958,2.447915 1.30208,0.859375 2.78646,0.859375 1.45833,0 2.73437,-0.833333 1.30208,-0.833333 2.23958,-2.395832 0.96354,-1.562499 1.51042,-3.776039 0.57291,-2.239582 0.57291,-5.0520809 z"
         style="font-size:53.3333px;line-height:0;font-family:Englebert;-inkscape-font-specification:'Englebert, Normal';text-align:start"
         id="path46" />
      <path
         d="m 411.20489,-2.5666672 -0.54687,26.9791502 h -3.22917 l -0.33854,-9.062494 q -0.57292,1.718749 -1.25,3.046873 -0.65104,1.302083 -1.35416,2.291665 -0.67709,0.963541 -1.38021,1.666666 -0.67708,0.677083 -1.32813,1.145833 -1.51041,1.067707 -3.04687,1.302082 -2.05729,0 -3.46354,-0.937499 -1.38021,-0.9375 -2.23958,-2.812499 -0.83333,-1.874999 -1.19792,-4.661455 -0.36458,-2.786457 -0.36458,-6.4843713 0,-2.83854 0.18229,-6.0937464 0.18229,-3.28124802 0.52084,-7.0833291 l 4.73958,0.3906248 q -0.67709,4.5572889 -0.98959,7.9687452 -0.28646,3.4114563 -0.28646,5.9374968 0,2.421873 0.20834,4.114581 0.20833,1.666665 0.52083,2.760415 0.3125,1.067707 0.67708,1.666665 0.39063,0.598958 0.75521,0.885416 0.36458,0.286459 0.65104,0.338542 0.3125,0.05208 0.44271,0.05208 0.98958,0 1.90104,-0.859374 0.91146,-0.859375 1.71875,-2.291666 0.80729,-1.43229 1.48437,-3.307289 0.70313,-1.874999 1.27605,-3.880206 0.57291,-2.0312491 1.01562,-4.0624979 0.46875,-2.0572905 0.78125,-3.8281227 0.3125,-1.77083231 0.49479,-3.12499817 0.18229,-1.38020753 0.23438,-2.05729043 z"
         style="font-size:53.3333px;line-height:0;font-family:Englebert;-inkscape-font-specification:'Englebert, Normal';text-align:start"
         id="path48" />
      <path
         d="m 429.72052,24.51665 -4.42708,-12.630201 q -1.30208,0.15625 -2.52604,0.15625 -0.3125,0 -0.625,0 -0.3125,0 -0.65104,-0.05208 -0.15625,3.098956 -0.26042,6.171871 -0.0781,3.046873 -0.15625,6.14583 h -3.90624 q 0.15625,-5.416664 0.26041,-10.781244 0.13021,-5.3906216 0.13021,-10.8593683 0,-3.958331 -0.0781,-7.838537 -0.0781,-3.9062477 -0.20834,-7.8645787 1.25,-0.494791 2.63021,-0.78125 1.38021,-0.312499 2.65625,-0.468749 1.30208,-0.15625 2.39583,-0.182292 1.09375,-0.05208 1.77083,-0.05208 2.47396,0 4.6875,0.677083 2.23958,0.677083 3.90625,2.239582 1.66666,1.536457 2.6302,4.0364558 0.98959,2.4739568 0.98959,6.0677047 -0.13021,2.3958319 -1.01563,4.401039 -0.88541,1.9791655 -2.31771,3.5677062 -1.43229,1.5624991 -3.2552,2.7083318 -1.79688,1.1458325 -3.75,1.8489575 1.43229,3.307289 3.09896,6.536454 1.66666,3.229165 3.5677,6.484371 z m -6.90104,-35.364562 q -0.39062,4.9999967 -0.67708,9.94791047 -0.28646,4.94791373 -0.54687,9.89582743 h 0.0521 q 2.86458,0 4.84375,-0.7812495 2.0052,-0.7812496 3.30729,-1.9531239 1.32812,-1.1718743 2.05729,-2.5260401 0.72916,-1.3802075 1.0677,-2.5781235 0.36459,-1.19791595 0.44271,-2.00520713 0.0781,-0.80729117 0.0781,-0.85937447 0,-0.2864582 -0.0521,-1.0937494 -0.0521,-0.8072912 -0.28645,-1.8489572 -0.23438,-1.0677077 -0.72917,-2.2135403 -0.46875,-1.1458327 -1.32812,-2.0833321 -0.85938,-0.9635411 -2.16146,-1.5885403 -1.30208,-0.625 -3.17708,-0.625 -1.30209,0 -2.89063,0.3125 z"
         style="font-size:53.3333px;line-height:0;font-family:Englebert;-inkscape-font-specification:'Englebert, Normal';text-align:start"
         id="path50" />
      <path
         d="m 470.03298,-13.035411 -0.36458,3.6458312 h -8.17708 V 23.943734 h -3.46354 V -9.3895798 h -6.38021 v -3.7499982 z"
         style="font-size:53.3333px;line-height:0;font-family:Englebert;-inkscape-font-specification:'Englebert, Normal';text-align:start"
         id="path52" />
      <path
         d="m 485.26737,-3.8427081 q 1.51041,0 2.52604,0.6249996 1.04166,0.6249996 1.66666,1.6666657 0.65104,1.04166603 0.91146,2.42187354 0.28646,1.35416586 0.28646,2.81249836 0,1.4322908 -0.15625,3.4635396 -0.15625,2.0052071 -0.67709,4.0885393 l -3.20312,-0.46875 q 0.3125,-1.8489571 0.41667,-3.3854145 0.10416,-1.562499 0.10416,-2.7083317 0,-2.7864567 -0.59895,-3.90624766 -0.57292,-1.14583265 -1.79688,-1.14583265 -1.06771,0 -2.3177,0.98958274 -1.25,0.98958277 -2.44792,2.99478987 -1.19792,2.0052072 -2.1875,5.0520803 -0.98958,3.0468736 -1.53646,7.1614546 v 9.192702 l -3.93229,-0.208333 q -0.026,-7.57812 -0.15625,-12.9427 -0.10416,-5.3906223 -0.20833,-8.8020786 -0.15625,-4.01041424 -0.33854,-6.5885377 l 4.63541,-0.3124998 v 8.5156199 q 0.52084,-1.4062492 1.32813,-2.8906233 0.83333,-1.51041573 1.95312,-2.76041499 1.14583,-1.24999921 2.55208,-2.05729041 1.43229,-0.8072912 3.17709,-0.8072912 z"
         style="font-size:53.3333px;line-height:0;font-family:Englebert;-inkscape-font-specification:'Englebert, Normal';text-align:start"
         id="path54" />
      <path
         d="m 499.77257,-10.952079 q 0,0.651041 -0.26042,1.2239577 -0.23437,0.5468747 -0.65104,0.9635411 -0.41667,0.3906248 -0.98958,0.6249996 -0.54688,0.2343749 -1.17188,0.2343749 -0.625,0 -1.19791,-0.2343749 -0.54688,-0.2343748 -0.96354,-0.6249996 -0.39063,-0.4166664 -0.65105,-0.9635411 -0.23437,-0.5729167 -0.23437,-1.2239577 0,-0.625 0.23437,-1.171874 0.26042,-0.572917 0.65105,-0.963541 0.41666,-0.416667 0.96354,-0.651042 0.57291,-0.234374 1.19791,-0.234374 0.625,0 1.17188,0.234374 0.57291,0.234375 0.98958,0.651042 0.41667,0.390624 0.65104,0.963541 0.26042,0.546874 0.26042,1.171874 z m -0.98958,8.4895784 -0.44271,26.0156096 h -3.56771 l -0.36458,-26.3281094 z"
         style="font-size:53.3333px;line-height:0;font-family:Englebert;-inkscape-font-specification:'Englebert, Normal';text-align:start"
         id="path56" />
      <path
         d="m 527.89754,9.0479092 q 0,3.2552068 -0.72917,6.2499958 -0.70312,2.968749 -2.08333,5.234372 -1.35417,2.265624 -3.33333,3.61979 -1.97917,1.328124 -4.50521,1.328124 -1.71875,-0.07813 -3.33333,-0.703125 -0.67708,-0.260416 -1.40625,-0.651041 -0.70312,-0.416666 -1.40625,-0.989583 -0.67708,-0.598958 -1.27604,-1.380207 -0.59896,-0.807291 -1.06771,-1.874999 v 13.697909 h -3.67187 V -3.4260417 h 4.08854 l -0.36458,4.01041428 q 0.54687,-0.91145779 1.19791,-1.61458238 0.65104,-0.7031246 1.35417,-1.2239576 0.70312,-0.520833 1.40625,-0.8593745 0.72916,-0.3645831 1.40625,-0.598958 1.5625,-0.5468746 3.17708,-0.6249996 2.26562,0 4.16666,0.9374995 1.92708,0.9114577 3.30729,2.65624837 1.40625,1.74479063 2.21354,4.21874753 0.80729,2.4739568 0.85938,5.5729133 z m -11.5625,12.4479088 q 1.5625,0 2.73438,-0.572916 1.19791,-0.598958 2.05729,-1.562499 0.85937,-0.989583 1.43229,-2.265624 0.57292,-1.27604 0.91146,-2.68229 0.36458,-1.406249 0.49479,-2.812498 0.15625,-1.432291 0.15625,-2.7083317 0,-2.6822901 -0.72917,-4.5312473 -0.72916,-1.8749989 -1.82291,-3.0468732 -1.09375,-1.17187429 -2.39584,-1.69270731 -1.27604,-0.54687467 -2.42187,-0.54687467 -1.17187,0 -2.55208,0.62499962 -1.35417,0.59895798 -2.52604,1.90104056 -1.17188,1.3020825 -1.95313,3.3333313 -0.7552,2.0052072 -0.7552,4.8177055 0,2.2916652 0.33854,4.0364562 0.36458,1.74479 0.9375,3.072915 0.59896,1.302082 1.35416,2.187498 0.78125,0.885416 1.58854,1.432291 0.83334,0.546875 1.64063,0.78125 0.80729,0.234374 1.51041,0.234374 z"
         style="font-size:53.3333px;line-height:0;font-family:Englebert;-inkscape-font-specification:'Englebert, Normal';text-align:start"
         id="path58" />
    </g>
    <g
       id="g892"
       transform="matrix(1.9573001,0,0,2.1682606,-0.26066644,-634.87405)">
      <ellipse
         ry="0.59429109"
         rx="0.83712077"
         cy="293.9281"
         cx="2.3257146"
         id="path4537-7"
         style="fill:none;fill-opacity:1;stroke:#e6b30e;stroke-width:0.15;stroke-miterlimit:4;stroke-dasharray:none;stroke-dashoffset:0;stroke-opacity:1" />
      <path
         sodipodi:nodetypes="cscsc"
         inkscape:connector-curvature="0"
         id="path4539-5"
         d="m 2.5359139,296.83097 c 0,0 0.9821197,-1.47465 1.1389054,-2.60853 0.1807277,-1.30697 -1.1372265,-1.31343 -1.1372265,-1.31343 0,0 -1.54172928,-0.30303 -2.07040074,1.03967 -0.51756366,1.31448 2.06872184,2.88229 2.06872184,2.88229 z"
         style="display:inline;fill:none;stroke:#0075be;stroke-width:0.15;stroke-linecap:butt;stroke-linejoin:miter;stroke-miterlimit:4;stroke-dasharray:none;stroke-opacity:0.811765" />
    </g>
  </g>
</svg>
